<?plantuml 1.2026.2?><svg xmlns="http://www.w3.org/2000/svg" xmlns:xlink="http://www.w3.org/1999/xlink" contentStyleType="text/css" data-diagram-type="DESCRIPTION" height="941px" preserveAspectRatio="none" style="width:740px;height:941px;background:#003153;" version="1.1" viewBox="0 0 740 941" width="740px" zoomAndPan="magnify"><title>LLM Challenges &#8212; Repository Overview</title><defs/><g><rect fill="#003153" height="941" style="stroke:none;stroke-width:1;" width="740" x="0" y="0"/><g class="title" data-source-line="3"><text fill="#D9D3D0" font-family="Verdana" font-size="22" font-weight="bold" lengthAdjust="spacing" textLength="485.3965" x="122.9436" y="37.1182">LLM Challenges &#8212; Repository Overview</text></g><!--cluster root--><g class="cluster" data-qualified-name="root" data-source-line="13" id="ent0003"><path d="M106.5,58.7373 L399.4287,58.7373 A3.75,3.75 0 0 1 401.9287,61.2373 L408.9287,81.752 L444.5,81.752 A2.5,2.5 0 0 1 447,84.252 L447,718.2373 A2.5,2.5 0 0 1 444.5,720.7373 L106.5,720.7373 A2.5,2.5 0 0 1 104,718.2373 L104,61.2373 A2.5,2.5 0 0 1 106.5,58.7373" fill="#003153" style="stroke:#D9D3D0;stroke-width:1;"/><line style="stroke:#D9D3D0;stroke-width:1;" x1="104" x2="408.9287" y1="81.752" y2="81.752"/><text fill="#D9D3D0" font-family="Verdana" font-size="14" font-weight="bold" lengthAdjust="spacing" textLength="291.9287" x="108" y="74.8125">llm-challenges  &#8212;  git repository root</text></g><!--cluster challenge--><g class="cluster" data-qualified-name="root.challenge" data-source-line="20" id="ent0008"><path d="M138.5,310.7373 L312.2031,310.7373 A3.75,3.75 0 0 1 314.7031,313.2373 L321.7031,333.752 L412.5,333.752 A2.5,2.5 0 0 1 415,336.252 L415,464.2373 A2.5,2.5 0 0 1 412.5,466.7373 L138.5,466.7373 A2.5,2.5 0 0 1 136,464.2373 L136,313.2373 A2.5,2.5 0 0 1 138.5,310.7373" fill="#003153" style="stroke:#D9D3D0;stroke-width:1;"/><line style="stroke:#D9D3D0;stroke-width:1;" x1="136" x2="321.7031" y1="333.752" y2="333.752"/><text fill="#D9D3D0" font-family="Verdana" font-size="14" font-weight="bold" lengthAdjust="spacing" textLength="172.7031" x="140" y="326.8125">challengeNN-&lt;slug&gt;/</text><text fill="#D9D3D0" font-family="Verdana" font-size="14" font-style="italic" lengthAdjust="spacing" textLength="84.5332" x="237.2334" y="349.8271">&#171;challenge&#187;</text></g><!--entity instr--><g class="entity" data-qualified-name="root.instr" data-source-line="15" id="ent0004"><path d="M258.5,235.2373 L258.5,284.2666 A2.5,2.5 0 0 0 261,286.7666 L413.334,286.7666 A2.5,2.5 0 0 0 415.834,284.2666 L415.834,242.7373 L405.834,232.7373 L261,232.7373 A2.5,2.5 0 0 0 258.5,235.2373" fill="#003153" style="stroke:#D9D3D0;stroke-width:1;"/><path d="M405.834,232.7373 L405.834,240.2373 A2.5,2.5 0 0 0 408.334,242.7373 L415.834,242.7373" fill="#003153" style="stroke:#D9D3D0;stroke-width:1;"/><text fill="#D9D3D0" font-family="Verdana" font-size="14" font-style="italic" lengthAdjust="spacing" textLength="74.8877" x="299.7231" y="256.8125">&#171;protocol&#187;</text><text fill="#D9D3D0" font-family="Verdana" font-size="14" lengthAdjust="spacing" textLength="137.334" x="268.5" y="273.8271">INSTRUCTIONS.md</text></g><!--entity rootReadme--><g class="entity" data-qualified-name="root.rootReadme" data-source-line="16" id="ent0005"><path d="M283.5,105.7373 L283.5,154.7666 A2.5,2.5 0 0 0 286,157.2666 L388.0283,157.2666 A2.5,2.5 0 0 0 390.5283,154.7666 L390.5283,113.2373 L380.5283,103.2373 L286,103.2373 A2.5,2.5 0 0 0 283.5,105.7373" fill="#003153" style="stroke:#D9D3D0;stroke-width:1;"/><path d="M380.5283,103.2373 L380.5283,110.7373 A2.5,2.5 0 0 0 383.0283,113.2373 L390.5283,113.2373" fill="#003153" style="stroke:#D9D3D0;stroke-width:1;"/><text fill="#D9D3D0" font-family="Verdana" font-size="14" font-style="italic" lengthAdjust="spacing" textLength="49.8545" x="312.0869" y="127.3125">&#171;docs&#187;</text><text fill="#D9D3D0" font-family="Verdana" font-size="14" lengthAdjust="spacing" textLength="87.0283" x="293.5" y="144.3271">README.md</text></g><!--entity pkg--><g class="entity" data-qualified-name="root.pkg" data-source-line="17" id="ent0006"><path d="M211.5,500.2373 L211.5,566.2813 A2.5,2.5 0 0 0 214,568.7813 L356.0186,568.7813 A2.5,2.5 0 0 0 358.5186,566.2813 L358.5186,507.7373 L348.5186,497.7373 L214,497.7373 A2.5,2.5 0 0 0 211.5,500.2373" fill="#003153" style="stroke:#D9D3D0;stroke-width:1;"/><path d="M348.5186,497.7373 L348.5186,505.2373 A2.5,2.5 0 0 0 351.0186,507.7373 L358.5186,507.7373" fill="#003153" style="stroke:#D9D3D0;stroke-width:1;"/><text fill="#D9D3D0" font-family="Verdana" font-size="14" font-style="italic" lengthAdjust="spacing" textLength="81.6621" x="244.1782" y="521.8125">&#171;toolchain&#187;</text><text fill="#D9D3D0" font-family="Verdana" font-size="14" lengthAdjust="spacing" textLength="92.7432" x="221.5" y="538.8271">package.json</text><text fill="#D9D3D0" font-family="Verdana" font-size="14" lengthAdjust="spacing" textLength="127.0186" x="221.5" y="555.8418">package-lock.json</text></g><!--entity assets--><g class="entity" data-qualified-name="root.assets" data-source-line="18" id="ent0007"><path d="M147.5,97.2373 L147.5,163.2813 A2.5,2.5 0 0 0 150,165.7813 L232.4092,165.7813 A2.5,2.5 0 0 0 234.9092,163.2813 L234.9092,104.7373 L224.9092,94.7373 L150,94.7373 A2.5,2.5 0 0 0 147.5,97.2373" fill="#003153" style="stroke:#D9D3D0;stroke-width:1;"/><path d="M224.9092,94.7373 L224.9092,102.2373 A2.5,2.5 0 0 0 227.4092,104.7373 L234.9092,104.7373" fill="#003153" style="stroke:#D9D3D0;stroke-width:1;"/><text fill="#D9D3D0" font-family="Verdana" font-size="14" font-style="italic" lengthAdjust="spacing" textLength="62.1934" x="160.1079" y="118.8125">&#171;assets&#187;</text><text fill="#D9D3D0" font-family="Verdana" font-size="14" lengthAdjust="spacing" textLength="67.4092" x="157.5" y="135.8271">.gitignore</text><text fill="#D9D3D0" font-family="Verdana" font-size="14" lengthAdjust="spacing" textLength="57.5791" x="157.5" y="152.8418">img.png</text></g><!--entity deps--><g class="entity" data-qualified-name="root.deps" data-source-line="24" id="ent0010"><polygon fill="#003153" points="208,633.7373,218,623.7373,362.4746,623.7373,362.4746,694.7813,352.4746,704.7813,208,704.7813,208,633.7373" style="stroke:#D9D3D0;stroke-width:1;"/><line style="stroke:#D9D3D0;stroke-width:1;" x1="352.4746" x2="362.4746" y1="633.7373" y2="623.7373"/><line style="stroke:#D9D3D0;stroke-width:1;" x1="208" x2="352.4746" y1="633.7373" y2="633.7373"/><line style="stroke:#D9D3D0;stroke-width:1;" x1="352.4746" x2="352.4746" y1="633.7373" y2="704.7813"/><text fill="#D9D3D0" font-family="Verdana" font-size="14" font-style="italic" lengthAdjust="spacing" textLength="51.126" x="254.6743" y="657.8125">&#171;deps&#187;</text><text fill="#D9D3D0" font-family="Verdana" font-size="14" lengthAdjust="spacing" textLength="108.8486" x="223" y="674.8271">node_modules/</text><text fill="#D9D3D0" font-family="Verdana" font-size="14" lengthAdjust="spacing" textLength="30.0303" x="223" y="691.8418">tsgo</text><text fill="#D9D3D0" font-family="Verdana" font-size="14" lengthAdjust="spacing" textLength="4.9219" x="253.0303" y="691.8418">&#160;</text><text fill="#D9D3D0" font-family="Verdana" font-size="14" lengthAdjust="spacing" textLength="5.0928" x="257.9521" y="691.8418">&#183;</text><text fill="#D9D3D0" font-family="Verdana" font-size="14" lengthAdjust="spacing" textLength="4.9219" x="263.0449" y="691.8418">&#160;</text><text fill="#D9D3D0" font-family="Verdana" font-size="14" lengthAdjust="spacing" textLength="69.5078" x="267.9668" y="691.8418">typescript</text></g><!--entity spec--><g class="entity" data-qualified-name="root.challenge.spec" data-source-line="21" id="ent0009"><path d="M179,374.2373 L179,440.2813 A2.5,2.5 0 0 0 181.5,442.7813 L388.4258,442.7813 A2.5,2.5 0 0 0 390.9258,440.2813 L390.9258,381.7373 L380.9258,371.7373 L181.5,371.7373 A2.5,2.5 0 0 0 179,374.2373" fill="#003153" style="stroke:#D9D3D0;stroke-width:1;"/><path d="M380.9258,371.7373 L380.9258,379.2373 A2.5,2.5 0 0 0 383.4258,381.7373 L390.9258,381.7373" fill="#003153" style="stroke:#D9D3D0;stroke-width:1;"/><text fill="#D9D3D0" font-family="Verdana" font-size="14" font-style="italic" lengthAdjust="spacing" textLength="49.6973" x="260.1143" y="395.8125">&#171;spec&#187;</text><text fill="#D9D3D0" font-family="Verdana" font-size="14" lengthAdjust="spacing" textLength="87.0283" x="189" y="412.8271">README.md</text><text fill="#D9D3D0" font-family="Verdana" font-size="14" lengthAdjust="spacing" textLength="86.6729" x="189" y="429.8418">specification</text><text fill="#D9D3D0" font-family="Verdana" font-size="14" lengthAdjust="spacing" textLength="4.9219" x="275.6729" y="429.8418">&#160;</text><text fill="#D9D3D0" font-family="Verdana" font-size="14" lengthAdjust="spacing" textLength="11.457" x="280.5947" y="429.8418">+</text><text fill="#D9D3D0" font-family="Verdana" font-size="14" lengthAdjust="spacing" textLength="4.9219" x="292.0518" y="429.8418">&#160;</text><text fill="#D9D3D0" font-family="Verdana" font-size="14" lengthAdjust="spacing" textLength="83.9521" x="296.9736" y="429.8418">deliverables</text></g><!--entity agent--><g class="entity" data-qualified-name="agent" data-source-line="11" id="ent0002"><ellipse cx="554.001" cy="91.7373" fill="#003153" rx="8" ry="8" style="stroke:#D9D3D0;stroke-width:1;"/><path d="M554.001,99.7373 L554.001,126.7373 M541.001,107.7373 L567.001,107.7373 M554.001,126.7373 L541.001,141.7373 M554.001,126.7373 L567.001,141.7373" fill="none" style="stroke:#D9D3D0;stroke-width:1;"/><text fill="#D9D3D0" font-family="Verdana" font-size="14" lengthAdjust="spacing" textLength="27.3848" x="463.5" y="157.8125">LLM</text><text fill="#D9D3D0" font-family="Verdana" font-size="14" lengthAdjust="spacing" textLength="4.9219" x="490.8848" y="157.8125">&#160;</text><text fill="#D9D3D0" font-family="Verdana" font-size="14" lengthAdjust="spacing" textLength="41.0088" x="495.8066" y="157.8125">Agent</text><text fill="#D9D3D0" font-family="Verdana" font-size="14" lengthAdjust="spacing" textLength="61.3867" x="463.5" y="174.8271">(harness</text><text fill="#D9D3D0" font-family="Verdana" font-size="14" lengthAdjust="spacing" textLength="4.9219" x="524.8867" y="174.8271">&#160;</text><text fill="#D9D3D0" font-family="Verdana" font-size="14" lengthAdjust="spacing" textLength="5.0928" x="529.8086" y="174.8271">&#183;</text><text fill="#D9D3D0" font-family="Verdana" font-size="14" lengthAdjust="spacing" textLength="4.9219" x="534.9014" y="174.8271">&#160;</text><text fill="#D9D3D0" font-family="Verdana" font-size="14" lengthAdjust="spacing" textLength="43.0186" x="539.8232" y="174.8271">model</text><text fill="#D9D3D0" font-family="Verdana" font-size="14" lengthAdjust="spacing" textLength="4.9219" x="582.8418" y="174.8271">&#160;</text><text fill="#D9D3D0" font-family="Verdana" font-size="14" lengthAdjust="spacing" textLength="5.0928" x="587.7637" y="174.8271">&#183;</text><text fill="#D9D3D0" font-family="Verdana" font-size="14" lengthAdjust="spacing" textLength="4.9219" x="592.8564" y="174.8271">&#160;</text><text fill="#D9D3D0" font-family="Verdana" font-size="14" lengthAdjust="spacing" textLength="46.7236" x="597.7783" y="174.8271">quant)</text></g><!--link agent to instr--><g class="link" data-entity-1="ent0002" data-entity-2="ent0004" data-link-type="dependency" data-source-line="28" id="lnk11"><path d="M463.11,173.7373 C431.13,173.7373 403,173.7373 403,173.7373 C403,173.7373 403,201.3273 403,226.5273" fill="none" id="agent-to-instr" style="stroke:#D9D3D0;stroke-width:1;"/><polygon fill="#D9D3D0" points="403,232.5273,407,223.5273,403,227.5273,399,223.5273,403,232.5273" style="stroke:#D9D3D0;stroke-width:1;"/><text fill="#D9D3D0" font-family="Verdana" font-size="13" lengthAdjust="spacing" textLength="134.3481" x="268.66" y="187.8071">1 &#183; read the protocol</text></g><!--link agent to spec--><g class="link" data-entity-1="ent0002" data-entity-2="ent0009" data-link-type="dependency" data-source-line="29" id="lnk12"><path d="M554,177.9373 C554,257.2873 554,407.7373 554,407.7373 C554,407.7373 472.51,407.7373 397.32,407.7373" fill="none" id="agent-to-spec" style="stroke:#D9D3D0;stroke-width:1;"/><polygon fill="#D9D3D0" points="391.32,407.7373,400.32,411.7373,396.32,407.7373,400.32,403.7373,391.32,407.7373" style="stroke:#D9D3D0;stroke-width:1;"/><text fill="#D9D3D0" font-family="Verdana" font-size="13" lengthAdjust="spacing" textLength="177.2837" x="555" y="371.2471">2 &#183; read the challenge spec</text></g><!--link agent to challenge--><g class="link" data-entity-1="ent0002" data-entity-2="ent0008" data-link-type="dependency" data-source-line="30" id="lnk13"><path d="M463.37,169.7373 C347.94,169.7373 163.25,169.7373 163.25,169.7373 C163.25,169.7373 163.25,229.2373 163.25,288.7373 C163.25,292.4561 163.25,296.1748 163.25,299.879 C163.25,301.7311 163.25,303.5796 163.25,305.4227 C163.25,306.3442 163.25,307.2643 163.25,308.1829 C163.25,308.6422 163.25,303.1011 163.25,303.5595" fill="none" id="agent-to-challenge" style="stroke:#D9D3D0;stroke-width:1;stroke-dasharray:7,7;"/><polygon fill="#D9D3D0" points="163.25,309.5595,167.25,300.5595,163.25,304.5595,159.25,300.5595,163.25,309.5595" style="stroke:#D9D3D0;stroke-width:1;"/><text fill="#D9D3D0" font-family="Verdana" font-size="13" lengthAdjust="spacing" textLength="142.0605" x="31.8155" y="183.8071">3 &#183; add a result folder</text><text fill="#D9D3D0" font-family="Verdana" font-size="13" lengthAdjust="spacing" textLength="162.2715" x="21.71" y="199.6064">(per naming convention)</text></g><!--link rootReadme to instr--><g class="link" data-entity-1="ent0005" data-entity-2="ent0004" data-link-type="dependency" data-source-line="33" id="lnk14"><path d="M337,157.3873 C337,179.4873 337,204.5373 337,226.6273" fill="none" id="rootReadme-to-instr" style="stroke:#D9D3D0;stroke-width:1;"/><polygon fill="#D9D3D0" points="337,232.6273,341,223.6273,337,227.6273,333,223.6273,337,232.6273" style="stroke:#D9D3D0;stroke-width:1;"/><text fill="#D9D3D0" font-family="Verdana" font-size="13" lengthAdjust="spacing" textLength="57.2622" x="279" y="209.0771">points to</text></g><!--link instr to challenge--><g class="link" data-entity-1="ent0004" data-entity-2="ent0008" data-link-type="dependency" data-source-line="34" id="lnk15"><path d="M258.5,259.7373 C205.07,259.7373 144,259.7373 144,259.7373 C144,259.7373 144,268.3892 144,281.5021 C144,288.0586 144,295.7304 144,303.9936 C144,306.0594 144,302.1621 144,304.2937" fill="none" id="instr-to-challenge" style="stroke:#D9D3D0;stroke-width:1;stroke-dasharray:7,7;"/><polygon fill="#D9D3D0" points="144,310.2937,148,301.2937,144,305.2937,140,301.2937,144,310.2937" style="stroke:#D9D3D0;stroke-width:1;"/><text fill="#D9D3D0" font-family="Verdana" font-size="13" lengthAdjust="spacing" textLength="131.5996" x="12" y="257.0971">defines result-folder</text><text fill="#D9D3D0" font-family="Verdana" font-size="13" lengthAdjust="spacing" textLength="124.5029" x="15.5483" y="272.8964">naming convention</text></g><!--link spec to pkg--><g class="link" data-entity-1="ent0009" data-entity-2="ent0006" data-link-type="dependency" data-source-line="35" id="lnk16"><path d="M285,443.0073 C285,460.0273 285,474.3373 285,491.3773" fill="none" id="spec-to-pkg" style="stroke:#D9D3D0;stroke-width:1;"/><polygon fill="#D9D3D0" points="285,497.3773,289,488.3773,285,492.3773,281,488.3773,285,497.3773" style="stroke:#D9D3D0;stroke-width:1;"/><text fill="#D9D3D0" font-family="Verdana" font-size="13" lengthAdjust="spacing" textLength="113.1152" x="153.3352" y="484.2671">verified with tsgo</text><text fill="#D9D3D0" font-family="Verdana" font-size="13" lengthAdjust="spacing" textLength="149.7856" x="135" y="500.0664">(type-level challenges)</text></g><!--link pkg to deps--><g class="link" data-entity-1="ent0006" data-entity-2="ent0010" data-link-type="dependency" data-source-line="36" id="lnk17"><path d="M285,569.0373 C285,585.8473 285,599.9873 285,617.3973" fill="none" id="pkg-to-deps" style="stroke:#D9D3D0;stroke-width:1;"/><polygon fill="#D9D3D0" points="285,623.3973,289,614.3973,285,618.3973,281,614.3973,285,623.3973" style="stroke:#D9D3D0;stroke-width:1;"/><text fill="#D9D3D0" font-family="Verdana" font-size="13" lengthAdjust="spacing" textLength="45.4048" x="239" y="593.2871">installs</text></g><g class="legend" data-source-line="38"><rect fill="none" height="197.1611" rx="7.5" ry="7.5" style="stroke:#D9D3D0;stroke-width:1;" width="448.1084" x="273.1753" y="731.7373"/><line style="stroke:#D9D3D0;stroke-width:1;" x1="273.1753" x2="450.1094" y1="745.2446" y2="745.2446"/><line style="stroke:#D9D3D0;stroke-width:1;" x1="273.1753" x2="450.1094" y1="747.2446" y2="747.2446"/><text fill="#D9D3D0" font-family="Verdana" font-size="14" lengthAdjust="spacing" textLength="84.3965" x="455.0313" y="750.3125">Stereotypes</text><line style="stroke:#D9D3D0;stroke-width:1;" x1="544.3496" x2="721.2837" y1="745.2446" y2="745.2446"/><line style="stroke:#D9D3D0;stroke-width:1;" x1="544.3496" x2="721.2837" y1="747.2446" y2="747.2446"/><text fill="#D9D3D0" font-family="Verdana" font-size="14" lengthAdjust="spacing" textLength="397.168" x="278.1753" y="767.8271">&#171;protocol&#187;   one-time setup, rules, verify &amp; timing steps</text><text fill="#D9D3D0" font-family="Verdana" font-size="14" lengthAdjust="spacing" textLength="319.4639" x="278.1753" y="784.8418">&#171;spec&#187;       a single challenge's requirements</text><text fill="#D9D3D0" font-family="Verdana" font-size="14" lengthAdjust="spacing" textLength="394.3789" x="278.1753" y="801.8564">&#171;toolchain&#187;  TypeScript + tsgo (native-preview) verifier</text><text fill="#D9D3D0" font-family="Verdana" font-size="14" lengthAdjust="spacing" textLength="414.7773" x="278.1753" y="818.8711">&#171;challenge&#187;  repeated generically as challengeNN-&lt;slug&gt;/</text><line style="stroke:#D9D3D0;stroke-width:1;" x1="273.1753" x2="444.2578" y1="830.3179" y2="830.3179"/><line style="stroke:#D9D3D0;stroke-width:1;" x1="273.1753" x2="444.2578" y1="832.3179" y2="832.3179"/><text fill="#D9D3D0" font-family="Verdana" font-size="14" lengthAdjust="spacing" textLength="96.0996" x="449.1797" y="835.3857">Result folders</text><line style="stroke:#D9D3D0;stroke-width:1;" x1="550.2012" x2="721.2837" y1="830.3179" y2="830.3179"/><line style="stroke:#D9D3D0;stroke-width:1;" x1="550.2012" x2="721.2837" y1="832.3179" y2="832.3179"/><text fill="#D9D3D0" font-family="Verdana" font-size="14" lengthAdjust="spacing" textLength="414.8252" x="278.1753" y="852.9004">Each challengeNN-&lt;slug&gt;/ holds exactly one README.md.</text><text fill="#D9D3D0" font-family="Verdana" font-size="14" lengthAdjust="spacing" textLength="279.542" x="278.1753" y="869.915">An agent adds its own subfolder named</text><text fill="#D9D3D0" font-family="Verdana" font-size="14" lengthAdjust="spacing" textLength="314.6719" x="278.1753" y="886.9297">[harness]_[model]_[quant]_[YYYY-MM-DD]/</text><text fill="#D9D3D0" font-family="Verdana" font-size="14" lengthAdjust="spacing" textLength="438.1084" x="278.1753" y="903.9443">containing the deliverables plus duration-&lt;secs&gt;-seconds.txt.</text><text fill="#D9D3D0" font-family="Verdana" font-size="14" lengthAdjust="spacing" textLength="410.9971" x="278.1753" y="920.959">Those generated result folders are deliberately not drawn.</text></g><?plantuml-src bLJ1Zjis4BthAwO-D5aqSjeDSbau1XRPFGJ8RW3l5aKH1m5N6akiQP8XAJkBe40_el_IUp-bNz8tb6pBJG-j3X95pXlEl7aptwIMDqmFfcCVj4r5aNGoJ6_Vtj3hLXd3jk58V_tsEotOkwYJ2u_qRijXgtbN576jhLT1RSXeo-dHCxcGMZSwYAsgtKxRXbRAH1wT16NNaJszV3dQjAvcsNmntjm5vN_ITMhf_Fpxeb0Lmg2917dPi4rB-xHLmNACzESVj8478ujFdRBfR48gaXApel2gMcD94sCsPNNCBoT8ZKuKZba6vr86ouA-50NHIeERoPlRk_l5Zw_ltxoxlPjkwcoZRKo1PZCVN7ALC_FvmNnnVNbrSxqt56SBLZLOdyrgLyMHvH3Uz9VexD8EVwLnrJflPRnVDm0cvmpYrtQ4dY9-tLWNU6drffbws_IvnyWf0jGlW128CpM3mmC9jxVbB9gkcJ_FeCC-S8VrV0uQYBvAR6cZvqglTAMITfQ-8rH0GoJgmN3C_iG0hkIJG_vLWf1QqqJU7r6q3hRFbpR5nadrH4on2jhtHQZPImxoWGF0dr1PbhHpORqoRaSGSbzbIGqRKOx_wrFqoBAS3uMKvu9-a3W2YfMzxqixCivP3SRd9yP7_iHcW4odyz711RqGYAfhKW36pgIXBD2pHt6isaZRLCvkWGQnP_kiqQaSh3A0cKnvRBN_NnbBqYCf_ZDpxt15fEIAVlSqyi6evXMQFWwnb_lOlmgxo3J95IBUyND140bqmpNjDBfRQe_afVIbuItQ-DYaPuMWnKkMmgaRYHA6iIWCW-gQWcxQ18czUaLtu8fTbXD-iJVkKg2TvJ9fa83kwFmp2YB4PtraZ_GjuKpoYGdNPdGluk5kHH6dPbJn9yB8fqu7J5QGc26ZVYMwHoXtMTdeb2ptfnPLt7Bf0yjSFTlJ4Z9ut7yoe5Wb48OqOLJXwF6aOO-DtAU_62jhOE1QLUs_8QY5LIJ-Z0aBjs263aq-1UxI3Zq6qMBcGI5kPobs3yCuGUcvXjtxOHn_-FW-JsDyyp36zsSyvSrDUNNrGGA4IX9e4OAbRSPpWxpfqFTTo0f7Y8nXMUBjR1sdwNEIYEvR5xdd8hCIJhDLeVVva8-HaiKehuFQsMa1cVHYAVu6?></g></svg>